PathFileType	4	(X/Y/Z)	3_coords_data.trc
DataRate	CameraRate	NumFrames	NumMarkers	Units	OrigDataRate	OrigDataStartFrame	OrigNumFrames
30.0	30.0	9	21	m	30.0	43	63
Frame#	Time	THUMB_TIP	THUMB_IP	THUMB_MCP	THUMB_CMC	INDEX_TIP	INDEX_DIP	INDEX_PIP	INDEX_MCP	MIDDLE_TIP	MIDDLE_DIP	MIDDLE_PIP	MIDDLE_MCP	RING_TIP	RING_DIP	RING_PIP	RING_MCP	PINKY_TIP	PINKY_DIP	PINKY_PIP	PINKY_MCP	WRIST
X1	Y1	Z1	X2	Y2	Z2	X3	Y3	Z3	X4	Y4	Z4	X5	Y5	Z5	X6	Y6	Z6	X7	Y7	Z7	X8	Y8	Z8	X9	Y9	Z9	X10	Y10	Z10	X11	Y11	Z11	X12	Y12	Z12	X13	Y13	Z13	X14	Y14	Z14	X15	Y15	Z15	X16	Y16	Z16	X17	Y17	Z17	X18	Y18	Z18	X19	Y19	Z19	X20	Y20	Z20	X21	Y21	Z21
41	1.3999999999999937	0.5447554688247632	-0.020347177943307315	-0.14236489370318245	0.5314727427465911	-0.013077465556678658	-0.1250813619533363	0.509621266459736	-0.006618290129718263	-0.10387730486775093	0.4766199142249732	-0.01874069322763605	-0.0764210106201888	0.5580872049530966	-0.05267274934778732	-0.16248712299060697	0.5620746607668767	-0.04870352463905858	-0.1452724359082122	0.5611700396442892	-0.04152669405036313	-0.12119579585346751	0.53832846759171	-0.02552000458041115	-0.08901374227729919	0.5562118050914752	-0.07019638905668929	-0.15628880378762644	0.563623491663971	-0.06982269813728792	-0.13976829358824572	0.5635479865339669	-0.06355219622939906	-0.1113063074523748	0.5343002146912603	-0.04647171621742907	-0.0821691667931117	0.5452062004453871	-0.0834401169445656	-0.1431395329148989	0.5527894070763831	-0.08610988719016294	-0.127003631823626	0.5535122675417758	-0.0823425653105827	-0.10239743874945839	0.5248648820634422	-0.06401308665608513	-0.08053243585647729	0.5352685272183735	-0.10585269119578472	-0.1359254798162413	0.5330323335693579	-0.10370967493702066	-0.1190907858992502	0.5272824515501976	-0.09661178365346296	-0.1001865320104417	0.5060877054975158	-0.07541425667839025	-0.08012834064373564	0.4622830810018609	-0.023011742144276925	-0.051989820119430985
42	1.4333333333333271	0.5477567036668642	-0.022119721440542972	-0.13996475880106862	0.534177094371868	-0.01567083706380945	-0.12258643604854808	0.5120938026719694	-0.008227583504793579	-0.10195281774846832	0.47731707376645083	-0.0184071553845504	-0.07593656430995532	0.5567218833430541	-0.05768034563737229	-0.162889875433045	0.5607211501844388	-0.0548088389873474	-0.14546115447336855	0.5599659787546726	-0.048412947708912024	-0.12116028774260978	0.5379260007294338	-0.03127756679931637	-0.08900046523485872	0.5551849764058924	-0.07599585174075008	-0.15787843926139805	0.5611537839792041	-0.07653731058394408	-0.14078808647177127	0.5598408205457464	-0.07104346886355639	-0.11219607045027097	0.5318748361991636	-0.052089742481256585	-0.0829589724966161	0.5413112861978879	-0.08847704942748785	-0.14532440652379108	0.5475161198961737	-0.09210458571462576	-0.12879137839032084	0.5477500236322852	-0.08911112797698717	-0.10406963737527086	0.5208617656092656	-0.06879881769503282	-0.08172791708570626	0.526760356350101	-0.10816022693509536	-0.13968689208033674	0.524927245376671	-0.10684206762401632	-0.12271921220977977	0.5200189570659468	-0.10022656914248484	-0.10340714591174571	0.5009771425279118	-0.07831961894912642	-0.0819973751674149	0.462283081001861	-0.023011742144276925	-0.051989820119430985
43	1.4666666666666603	0.5503898297062678	-0.024395935670681546	-0.1375043155414717	0.5363487149868141	-0.018447968178083363	-0.1203151102037564	0.5141628564338612	-0.0099487145222239	-0.10020614783466042	0.4779671214468695	-0.018202833357017667	-0.07547502794468042	0.5558158358088289	-0.062159321142364665	-0.16344116729653002	0.5594372852640889	-0.06015334869165334	-0.1458099115735254	0.558461494754	-0.054393452435430034	-0.12135830097221806	0.5370696086757611	-0.03634054042342316	-0.08926288584945652	0.5532399224474276	-0.08124525943708366	-0.15941097487296652	0.5579382310860166	-0.08246518390572694	-0.14196283227189394	0.5558149002204574	-0.07739132237961655	-0.11334191430532226	0.5292779992024466	-0.05682644425387273	-0.0838626573093666	0.5369958217915556	-0.09271276460816441	-0.14738271987547152	0.5420817594508829	-0.0970622265645632	-0.1306430837140946	0.5419854925680239	-0.09462664021245942	-0.10585924561728827	0.5169448876293087	-0.07269273683340688	-0.08291163526541112	0.5197528664042108	-0.10947022737306022	-0.1427401337469466	0.5180051938085032	-0.10888037615815654	-0.12572256294373008	0.5135731240367353	-0.10272366970892355	-0.10614544001322379	0.49628587427829773	-0.08042610504993608	-0.0836765046341793	0.4622830810018609	-0.023011742144276925	-0.051989820119430985
44	1.4999999999999936	0.5525332452594857	-0.026849930570464475	-0.13521538098188024	0.5380186378585816	-0.02110770832830955	-0.11835260968771505	0.515840706628609	-0.011640175052637702	-0.09867203093523275	0.4785542826300293	-0.0180655231587179	-0.07504307651245257	0.5552715549975512	-0.06627139152198336	-0.1639176137831383	0.5582968034524075	-0.06483205464971692	-0.14611940653761707	0.5568787669851527	-0.059466788803956894	-0.12159976282116275	0.5359928829413637	-0.04060161291095399	-0.0896385194123801	0.5507828032597715	-0.08583565933644616	-0.16085300348910342	0.5544393748546557	-0.08743235348494821	-0.1431872158766695	0.5518557529594736	-0.08251193442242705	-0.11457735876147368	0.5267266216217645	-0.06070710022482795	-0.08475750153801631	0.5327046193928384	-0.0961226980350956	-0.1492972798068144	0.5368412561868858	-0.1009367817996843	-0.13242384407067403	0.5365870821123654	-0.09890708703284512	-0.1076045831289516	0.5133342657784173	-0.07577073140860924	-0.08396697718062074	0.5141774351787665	-0.11029712932398811	-0.14509897634900049	0.5122860341411074	-0.11020867387197175	-0.1280867813775175	0.5081030363597633	-0.1043983442532414	-0.10834964333060271	0.4921027761285036	-0.0819128188186456	-0.08512732067626583	0.462283081001861	-0.023011742144276925	-0.051989820119430985
45	1.5333333333333266	0.5542045818321656	-0.029180366490775267	-0.1331828738649143	0.5392918795112214	-0.023398216490086443	-0.11668505428605963	0.5171873503900773	-0.013128333001507397	-0.09732687034583665	0.4790877713044124	-0.017974342729532578	-0.0746370430390666	0.5549750516547538	-0.06990886048737138	-0.1642606999817523	0.557319732377397	-0.0688014087291775	-0.14633652572149314	0.555368105830936	-0.0636434589446691	-0.12180906069056013	0.5348819971210919	-0.04407782120694376	-0.09001061318373127	0.5483709639301191	-0.08962400289173722	-0.16214633531994577	0.5512112764767212	-0.09136176214275815	-0.1443442900042214	0.5482280739318384	-0.08647594880497939	-0.11576739583070084	0.5244192114380933	-0.06376729294097078	-0.08554153047329593	0.5288714229614928	-0.09870041908136468	-0.15102490541954267	0.5322278445354759	-0.10376577570804107	-0.13405208607618407	0.5318694195474406	-0.10204067035607106	-0.10921108122427525	0.5102022469537796	-0.07809290956439868	-0.08488497962822505	0.5095097162318851	-0.11073256919875107	-0.14701292393472487	0.5074770284136971	-0.11100827658711776	-0.13001903780853846	0.5035143564533248	-0.10546785641568451	-0.11015920411692737	0.4885926767152293	-0.08290301100999725	-0.08630433717931585	0.462283081001861	-0.023011742144276925	-0.051989820119430985
46	1.5666666666666598	0.5553454962249815	-0.031290978156154725	-0.13157083062973085	0.5401943575912295	-0.025324457406004752	-0.11535837775427565	0.5181808213263336	-0.014411725881347315	-0.09624983223702444	0.4794966949431212	-0.01791837939074581	-0.07431511666711865	0.5548507992850165	-0.07300087393531252	-0.1645487932656003	0.5565713731948679	-0.07202706198129682	-0.1465462568971061	0.5540549096032589	-0.06689868128063242	-0.12206408061759288	0.5338016772230908	-0.04677839780646542	-0.09046318086657201	0.5463839722337683	-0.09263298888584093	-0.16339180713115387	0.5484752721770381	-0.09431818918190638	-0.14548129165813017	0.545092550816046	-0.08931454211871043	-0.11696935973023614	0.5224608318503278	-0.06602477653383815	-0.0862848353464617	0.5256785228890276	-0.10057962850664903	-0.1526521347373152	0.5283745842228643	-0.10570602962701092	-0.1355801909453112	0.5279296798959985	-0.10418284567505681	-0.11072738527294401	0.5076599982392984	-0.07971448796984909	-0.08572417926359299	0.505602044631206	-0.11081171970510684	-0.14869825615035892	0.503510733450487	-0.11133626900202143	-0.1317173472942198	0.49977407195361023	-0.10601235980008261	-0.1117547479978539	0.4858112538062066	-0.08348201635019892	-0.08729443760708366	0.4622830810018609	-0.023011742144276925	-0.051989820119430985
47	1.599999999999993	0.5559843933227876	-0.03302250551634989	-0.13052205817218704	0.540741186600875	-0.026868980791346087	-0.11446656745119665	0.5188524919662506	-0.01545315136260117	-0.0955091444816587	0.4798118690031692	-0.017930125096294436	-0.07407122574459113	0.5546612613891019	-0.07557107962261528	-0.1648527660408844	0.5558780329626116	-0.07457301880567174	-0.14681050061928114	0.5528891968256768	-0.06931808954502683	-0.12240840214369564	0.5328408968417341	-0.048739611970926744	-0.0909723078811111	0.5448038576572334	-0.094874014315804	-0.16446282143058621	0.546325907619944	-0.09640333495859088	-0.1464810378070811	0.5426786008329306	-0.09120815113058861	-0.1180360598989394	0.5208946752791767	-0.06759009463624188	-0.08699099723354353	0.5231704373666964	-0.10183418271232836	-0.15407463136962296	0.5254048775010822	-0.10692092948832849	-0.13692434610894283	0.5248956141871086	-0.10548365852689934	-0.11206765924080864	0.5057764369173078	-0.08076932204458243	-0.08640875305280526	0.5026741847341945	-0.11068537319562727	-0.1500501009227434	0.5005706911729756	-0.11137316560529975	-0.13307652568241446	0.4969782738008952	-0.10619659893477051	-0.11304880204915196	0.4838235227844291	-0.08378179019324061	-0.08804055689329537	0.462283081001861	-0.023011742144276925	-0.051989820119430985
48	1.6333333333333262	0.5562191386143553	-0.034369710473310666	-0.12997775165853404	0.5409906690296344	-0.028011386584718745	-0.11398821034444401	0.5192192517884371	-0.01625789581878112	-0.09510221431233834	0.47999434160780485	-0.017925266573575738	-0.0739240109870467	0.554409219204641	-0.07754549751666767	-0.16519314926915285	0.5552638318754499	-0.07640454903144556	-0.14713856886037674	0.5519533334495877	-0.07094419526496165	-0.1228232450929001	0.5320520627693597	-0.05001547697989278	-0.09152525361969965	0.5436388718672951	-0.09646782865852216	-0.16538269798472094	0.5447413771404823	-0.09774328321605008	-0.1473505683879629	0.5409284068151662	-0.09230573490024924	-0.11897269187100712	0.5197895249186132	-0.06854012412777016	-0.08759608692760057	0.5213251826075588	-0.10258695110421101	-0.1552686480572794	0.5232467399323741	-0.10756994835036154	-0.13805013023801566	0.522742969919808	-0.10617215303279903	-0.11319108031601255	0.504482810500413	-0.08137557628793957	-0.08699151555408224	0.5006452970759302	-0.11047551499045721	-0.15107608909917808	0.4985720624593504	-0.11125469067011662	-0.13410273988681454	0.49509415000618706	-0.1061694472333421	-0.1140314558432643	0.48248419894378736	-0.08389481073721089	-0.08862056931466977	0.4622830810018609	-0.023011742144276925	-0.051989820119430985
49	1.6666666666666594	0.5562027106884774	-0.035376311630961	-0.12976495430645618	0.5410481171005799	-0.028846458793909013	-0.11377435346996145	0.5193879834410189	-0.016843251322012365	-0.0949174815067606	0.48007087088466116	-0.01798517557426149	-0.07387584019167226	0.5540409028985461	-0.07897095300302881	-0.1655148199862782	0.5546981098255404	-0.07767063623418002	-0.14746274931957182	0.5512314956816629	-0.07199730349065325	-0.12321804443461398	0.5314600688876744	-0.050809409877537515	-0.09201227668617928	0.5427536380279459	-0.09753617574780038	-0.1661132842554316	0.5436086249465256	-0.09858120876455423	-0.14805291594902792	0.5397524645510005	-0.09292896091890623	-0.11972286703810381	0.5190147607103454	-0.06907600869848596	-0.08814546640430188	0.5199024487972345	-0.10296293497625048	-0.15624679275224024	0.5216981152204295	-0.10784664815039458	-0.13898629079750835	0.5212530925287536	-0.10647441554362014	-0.11412469568623684	0.5036147791302806	-0.08169931960208748	-0.08748252318576111	0.499270579318432	-0.1102586202636065	-0.1517945941401858	0.49726034415844855	-0.11108371157827546	-0.13481583744471426	0.49388814603847253	-0.1060728140394942	-0.11470784886565771	0.4816460964400623	-0.08394151126844862	-0.08899362886414142	0.4622830810018609	-0.023011742144276925	-0.051989820119430985
